<?xml version="1.0" standalone="no"?>
<!DOCTYPE svg PUBLIC "-//W3C//DTD SVG 20010904//EN"
 "http://www.w3.org/TR/2001/REC-SVG-20010904/DTD/svg10.dtd">
<svg version="1.0" xmlns="http://www.w3.org/2000/svg"
 width="637.000000pt" height="637.000000pt" viewBox="0 0 637.000000 637.000000"
 preserveAspectRatio="xMidYMid meet">
<metadata>
Created by potrace 1.11, written by Peter Selinger 2001-2013
</metadata>
<g transform="translate(0.000000,637.000000) scale(0.100000,-0.100000)"
fill="#000000" stroke="none">
<path d="M2920 6340 c-216 -48 -342 -142 -393 -293 -14 -42 -15 -91 -11 -385
3 -185 6 -515 6 -732 l1 -395 -126 -218 c-70 -120 -127 -220 -127 -221 0 -2
-26 -50 -58 -107 -32 -57 -66 -122 -76 -144 -10 -22 -27 -51 -36 -65 -10 -14
-19 -29 -21 -35 -1 -5 -46 -100 -100 -210 -227 -468 -363 -812 -514 -1305 -39
-127 -121 -474 -140 -595 -15 -95 -19 -121 -20 -130 -2 -18 -14 -118 -22 -180
-10 -80 -10 -494 0 -570 20 -149 68 -311 118 -405 90 -165 222 -272 388 -316
98 -25 276 -27 375 -3 172 42 328 146 456 305 37 46 90 122 90 130 0 4 6 15
14 23 21 24 110 203 151 306 104 258 251 807 299 1115 3 19 8 46 11 60 2 13 7
40 10 60 3 20 7 47 10 60 2 13 10 60 16 104 15 103 15 110 23 176 4 30 9 62
11 70 2 8 7 51 11 95 3 44 8 87 9 95 2 8 6 53 10 100 4 47 9 92 10 101 2 9 6
65 10 125 9 147 6 141 68 143 28 1 63 3 77 6 124 21 166 29 235 49 268 77 519
231 751 461 175 173 302 344 415 560 59 112 143 305 132 305 -3 0 -1 6 5 13
17 21 73 233 92 352 32 194 35 525 6 671 -83 415 -320 704 -642 784 -193 48
-423 21 -604 -71 -147 -74 -259 -169 -444 -374 l-35 -40 -2 55 c-5 267 -8 306
-33 364 -23 53 -57 81 -126 104 -25 9 -243 10 -280 2z m1123 -718 c38 -11 99
-51 125 -82 23 -27 59 -104 72 -155 15 -55 19 -247 7 -365 -33 -326 -172 -674
-367 -914 -43 -53 -163 -168 -217 -208 -70 -52 -184 -109 -259 -131 l-51 -15
3 517 c1 284 3 590 5 681 l2 165 30 45 c104 154 268 335 363 401 97 67 193 87
287 61z m-1538 -2294 c-12 -322 -23 -529 -40 -788 -3 -36 -7 -103 -10 -150 -4
-47 -8 -101 -10 -120 -2 -19 -7 -66 -10 -105 -11 -116 -20 -208 -31 -300 -3
-22 -7 -60 -10 -85 -2 -25 -7 -56 -9 -70 -3 -14 -7 -48 -10 -76 -3 -28 -7 -60
-9 -71 -3 -12 -8 -43 -12 -70 -3 -26 -8 -57 -10 -68 -8 -39 -13 -71 -24 -137
-5 -37 -25 -127 -44 -200 -76 -302 -160 -433 -258 -402 -65 20 -120 145 -135
304 -22 240 11 550 102 940 20 85 38 163 40 173 2 9 6 21 9 25 3 5 7 19 10 33
30 157 229 739 367 1075 88 215 92 224 96 224 1 0 1 -60 -2 -132z"/>
</g>
</svg>
